<?xml version="1.0" standalone="no"?>
<!DOCTYPE svg PUBLIC "-//W3C//DTD SVG 20010904//EN"
 "http://www.w3.org/TR/2001/REC-SVG-20010904/DTD/svg10.dtd">
<svg version="1.0" xmlns="http://www.w3.org/2000/svg"
 width="700.000000pt" height="700.000000pt" viewBox="0 0 700.000000 700.000000"
 preserveAspectRatio="xMidYMid meet">
<metadata>
Created by potrace 1.14, written by Peter Selinger 2001-2017
</metadata>
<g transform="translate(0.000000,700.000000) scale(0.100000,-0.100000)"
fill="#000000" stroke="none">
<path d="M1142 6638 c-320 -35 -601 -250 -723 -553 -15 -39 -30 -81 -33 -95
-22 -98 -27 -134 -28 -205 -11 -452 297 -828 742 -905 73 -13 4655 -18 4770
-5 36 4 73 11 83 16 9 6 17 8 17 5 0 -12 170 53 225 87 199 121 334 286 404
494 63 188 59 405 -13 595 -29 77 -36 91 -86 168 -42 65 -38 61 -120 145 -112
115 -240 187 -410 233 l-95 25 -2335 1 c-1284 1 -2363 -2 -2398 -6z"/>
<path d="M1086 4374 c-429 -85 -727 -440 -728 -869 0 -114 12 -192 47 -294 39
-115 89 -199 190 -320 69 -82 255 -199 375 -236 57 -17 61 -18 145 -34 32 -7
899 -9 2415 -8 l2365 2 80 23 c394 111 655 439 669 838 1 38 -2 94 -6 124 -5
30 -10 69 -13 85 -2 17 -15 63 -29 102 -108 316 -388 547 -720 592 -54 8 -796
11 -2400 10 -1914 -1 -2333 -3 -2390 -15z"/>
<path d="M1165 2129 c-96 -12 -130 -20 -195 -41 -367 -119 -616 -462 -613
-843 1 -186 42 -324 139 -476 60 -95 94 -133 179 -205 130 -110 285 -178 455
-201 73 -9 4668 -9 4745 1 346 43 651 312 739 651 79 305 -1 616 -218 844
-149 155 -337 247 -550 267 -83 8 -4620 10 -4681 3z"/>
</g>
</svg>
